<svg id="Layer_1" data-name="Layer 1" xmlns="http://www.w3.org/2000/svg" width="179.449" height="50.248" viewBox="0 0 179.449 50.248">
  <g id="Group_36" data-name="Group 36">
    <path id="Path_28" data-name="Path 28" d="M506.021,134.2c8.4,2.523,15.916,7.832,7.014,14.211-6.78,4.858-20.777,8.045-26.246,9.293-21.036,4.8-44.395,5.784-60.582,5.169-13.968-.532-25.562-2.57-34.257-5.383a159.832,159.832,0,0,0,18.837,3.316,202.631,202.631,0,0,0,46.084-.178c10.253-1.176,25.96-3.6,38.383-7.533,10.751-3.4,25.733-11.72,10.767-18.895Z" transform="translate(-345.06 -118.145)" fill="#8dc63f" fill-rule="evenodd"/>
    <path id="Path_29" data-name="Path 29" d="M532.452,225.53c6.542,2.513,12.116,5.832,9.842,9.617a6.472,6.472,0,0,1-1.225,1.443c-5.3,4.813-17.414,7.451-25.7,8.989-31.721,5.9-77.429,3.572-102.631-6.028a125.51,125.51,0,0,0,20.011,4.483,247.736,247.736,0,0,0,25.927,2.4,297.742,297.742,0,0,0,38.2-.753,148.083,148.083,0,0,0,20.421-3.112,81.557,81.557,0,0,0,13.035-3.968c3.651-1.552,8.14-3.949,7.75-7.146a5.8,5.8,0,0,0-2.012-3.338,19.31,19.31,0,0,0-3.618-2.585h0Z" transform="translate(-363.363 -198.549)" fill="#f58220" fill-rule="evenodd"/>
    <path id="Path_30" data-name="Path 30" d="M0,63.534V62.82c2.993.055,6.026.062,9.08.026a7.147,7.147,0,0,1,3.4.45C19.645,66.1,15.794,76.51,8.257,76.145L8.234,75.5c7.281-.668,5.8-12.914-1.645-11.1V84.521c.081,1.578,1.129,2.129,3.071,1.73v.775c-2.981-.109-5.964-.118-8.943,0v-.714a1.663,1.663,0,0,0,2.335-1.634V64.729c0-1.05-.922-1.236-1.591-1.221L0,63.535H0Z" transform="translate(0 -55.305)" fill="#ab2c30"/>
    <path id="Path_31" data-name="Path 31" d="M295.411,61.824h5.905V82.231a1.311,1.311,0,0,1-1.245,1.181l-1,.1v.6h9.159V83.4l-1.884-.066a1.337,1.337,0,0,1-1.266-1.4V61.709h5.094a2.716,2.716,0,0,1,1.979,2.771h.624l-.072-4.924a3.119,3.119,0,0,1-1.158.44H295.36a3.874,3.874,0,0,1-1.609-.516l-.88,4.742.56.068c.289-1.285.849-2.226,1.98-2.468h0Z" transform="translate(-257.833 -52.364)" fill="#ab2c30"/>
    <path id="Path_32" data-name="Path 32" d="M439.049,77.944l7.707-20.283a.52.52,0,0,1,.78.014l8.221,21.758a3.033,3.033,0,0,0,3.182,2.129v.764h-7.123l-.066-.644c-.02-.181.9-.273.675-1.148l-2.457-6.546h-7.306l-2,5.156c-.688,1.635-.68,2.868,1.687,2.519l0,.7H435.31l.014-.738,1.442-.03c1.481-.5,1.761-2.314,2.284-3.656h0Zm4.145-5.388h6.076l-2.88-8.731-3.2,8.731Z" transform="translate(-383.233 -50.614)" fill="#ab2c30"/>
    <path id="Path_33" data-name="Path 33" d="M634.939,56.439,651.516,75.1l-.043-16.391c0-.967-1.844-1.011-3-1.014v-.654h7.67V57.7c-.887.075-2.534.154-2.542.916l-.269,22.6c-.006.518-.69.319-.976,0l-15.61-17.445-.419-.031.206,15.527c.524,1.487,1.61,1.293,3.024,1.326v.772H631.32l.039-.751c1.407.153,2.688-.158,3.071-1.324l.148-22.276c0-.383.239-.709.36-.573h0Z" transform="translate(-555.793 -49.658)" fill="#ab2c30"/>
    <path id="Path_34" data-name="Path 34" d="M1148.02,63.461h9.278v.615h-1.861a1.105,1.105,0,0,0-1.056,1.193l.072,18.416c.006.873.371,1.93,1.533,1.93h4.8c1.211-.1,1.975-.851,2.275-2.966h.621a27.82,27.82,0,0,1-.683,4.736h-14.326V86.7a2.159,2.159,0,0,0,2.022-.959l.025-20.359a1.2,1.2,0,0,0-1.263-1.36h-1.431l-.008-.566h0Z" transform="translate(-1010.679 -55.868)" fill="#ab2c30"/>
    <path id="Path_35" data-name="Path 35" d="M1301.981,63.47h8.586v.615h-1.42a1.109,1.109,0,0,0-1.057,1.193l.059,14.488v5.747c.077.68.3,1.245,1.151,1.281h2.018v.8h-9.3l.008-.665,1.406-.034c.668-.018,1.094-.607,1.094-1.517,0-6.665-.1-13.23-.091-19.981a1.193,1.193,0,0,0-1.259-1.36h-1.186l-.007-.566h0Z" transform="translate(-1146.22 -55.877)" fill="#ab2c30"/>
    <path id="Path_36" data-name="Path 36" d="M861.489,63.47h8.957v.615h-1.42a1.106,1.106,0,0,0-1.058,1.193l.06,14.488v3.181c0,6.144-1.171,9.322-6.495,12.027-1.737.882-1.352.743-.225-.325,3.285-3.11,3.1-6.671,3.091-11.187-.016-6.01-.1-11.962-.089-18.063a1.2,1.2,0,0,0-1.265-1.36H861.5l-.008-.566h0Z" transform="translate(-757.42 -55.877)" fill="#ab2c30"/>
    <path id="Path_37" data-name="Path 37" d="M1387.713,0a3.842,3.842,0,0,1,1.836.481,3.432,3.432,0,0,1,1.394,1.383,3.8,3.8,0,0,1,.5,1.876,3.715,3.715,0,0,1-.494,1.854,3.422,3.422,0,0,1-1.38,1.385,3.786,3.786,0,0,1-1.856.494,3.826,3.826,0,0,1-1.863-.494,3.419,3.419,0,0,1-1.383-1.385,3.692,3.692,0,0,1-.5-1.854,3.779,3.779,0,0,1,.5-1.876,3.457,3.457,0,0,1,1.4-1.383,3.839,3.839,0,0,1,1.84-.481h0Zm0,.615a3.167,3.167,0,0,0-1.536.406,2.922,2.922,0,0,0-1.17,1.15,3.25,3.25,0,0,0-.416,1.568A3.124,3.124,0,0,0,1385,5.287a2.956,2.956,0,0,0,1.157,1.154,3.115,3.115,0,0,0,3.1,0,3,3,0,0,0,1.157-1.154,3.186,3.186,0,0,0,.406-1.548,3.218,3.218,0,0,0-.418-1.568,2.876,2.876,0,0,0-1.166-1.15,3.158,3.158,0,0,0-1.526-.406h0ZM1386.072,5.8V1.781h1.384a3.349,3.349,0,0,1,1.024.115.975.975,0,0,1,.507.389,1.039,1.039,0,0,1,.187.584,1.082,1.082,0,0,1-.317.77,1.262,1.262,0,0,1-.834.366,1.162,1.162,0,0,1,.342.208,4.72,4.72,0,0,1,.592.8l.489.785h-.788l-.36-.634a3.106,3.106,0,0,0-.678-.936.849.849,0,0,0-.519-.135h-.379V5.8h-.649Zm.648-2.261h.786a1.3,1.3,0,0,0,.773-.167.551.551,0,0,0,.206-.443.515.515,0,0,0-.1-.318.553.553,0,0,0-.272-.211,2.147,2.147,0,0,0-.652-.069h-.738V3.538h0Z" transform="translate(-1218.402)" fill="#231f20" fill-rule="evenodd"/>
    <path id="Path_38" data-name="Path 38" d="M122.633,77.944l7.714-20.283a.52.52,0,0,1,.78.014l8.221,21.758a3.031,3.031,0,0,0,3.182,2.129v.764H135.4l-.066-.644c-.02-.181.9-.273.678-1.148l-2.457-6.546h-7.3l-2,5.156c-.685,1.635-.68,2.868,1.687,2.519l0,.7H118.9l.014-.738,1.44-.03c1.477-.5,1.757-2.314,2.279-3.656h0Zm4.149-5.388h6.08l-2.883-8.731-3.2,8.731Z" transform="translate(-104.676 -50.614)" fill="#ab2c30"/>
    <path id="Path_39" data-name="Path 39" d="M948.425,77.944l7.709-20.283a.525.525,0,0,1,.785.014l8.221,21.758a3.026,3.026,0,0,0,3.18,2.129v.764H961.2l-.071-.644c-.016-.181.9-.273.677-1.148l-2.455-6.546H952.04l-1.993,5.156c-.692,1.635-.684,2.868,1.682,2.519v.7H944.69l.014-.738,1.438-.03c1.477-.5,1.762-2.314,2.281-3.656h0Zm4.149-5.388h6.077l-2.88-8.731-3.2,8.731Z" transform="translate(-831.674 -50.614)" fill="#ab2c30"/>
  </g>
</svg>
